<svg xmlns="http://www.w3.org/2000/svg" viewBox="0 0 640 853" preserveAspectRatio="xMidYMid slice">
<rect width="640" height="853" fill="#ca3e49"/>
<path d="M699.0 420.0 Q696.0 493.3 660.1 557.3 Q645.0 622.9 601.9 674.4 Q619.0 777.6 587.4 877.3 Q519.5 906.2 445.8 901.0 Q388.3 938.5 320.0 945.7 Q251.8 936.2 195.3 896.9 Q134.7 860.9 97.0 801.3 Q26.8 782.2 -27.1 733.3 Q-65.9 659.5 -67.0 576.2 Q-110.3 504.0 -116.1 420.0 Q-116.6 335.1 -78.5 259.1 Q-78.7 172.6 -39.5 95.5 Q18.6 47.2 92.3 30.6 Q150.1 6.0 212.8 10.2 Q264.0 -12.8 320.0 -10.0 Q377.0 -63.6 452.2 -85.5 Q507.2 -16.7 524.9 69.6 Q597.0 76.2 658.2 114.7 Q703.2 181.5 713.0 261.4 Q725.1 342.4 699.0 420.0 Z" fill="#fbb3b6"/>
<path d="M651.1 420.0 Q614.3 484.9 551.9 526.1 Q558.1 588.5 535.3 647.0 Q504.7 692.0 457.0 718.1 Q433.8 791.4 379.8 846.2 Q319.5 855.3 261.6 836.1 Q197.2 842.0 137.1 818.1 Q107.7 723.6 124.4 626.2 Q71.5 598.3 36.9 549.5 Q39.2 480.5 72.5 420.0 Q53.7 362.4 63.1 302.5 Q55.6 232.9 80.4 167.4 Q136.5 145.4 196.5 151.2 Q226.8 109.0 273.0 85.1 Q316.2 34.2 377.8 8.5 Q436.3 29.0 479.1 73.8 Q519.4 130.4 529.6 199.0 Q586.9 228.4 624.7 280.7 Q654.6 347.2 651.1 420.0 Z" fill="#fd9f9d"/>
<path d="M320.0 247.4 Q398.4 172.8 412.4 286.9 Q515.3 272.1 469.0 365.6 Q534.8 414.0 479.0 465.7 Q500.8 545.3 419.1 550.4 Q404.8 675.0 320.0 568.9 Q238.2 665.8 226.1 543.3 Q94.6 577.8 139.5 472.7 Q88.9 414.0 134.2 353.6 Q99.7 253.9 227.8 287.1 Q243.6 179.0 320.0 247.4 Z" fill="#fc7c79"/>
<path d="M320.0 296.7 Q375.6 277.8 395.4 336.6 Q474.6 348.0 416.1 412.0 Q459.4 469.7 395.3 487.3 Q385.7 570.5 320.0 502.4 Q270.5 531.5 250.2 481.8 Q166.9 475.4 206.0 412.0 Q197.5 361.3 237.8 329.8 Q262.1 272.1 320.0 296.7 Z" fill="#ff6261"/>
</svg>
