<svg xmlns="http://www.w3.org/2000/svg" viewBox="0 0 640 853" preserveAspectRatio="xMidYMid slice">
<rect width="640" height="853" fill="#b23c3c"/>
<path d="M76.6 158.0 Q69.0 172.0 55.9 181.1 Q31.9 191.1 6.0 189.1 Q-13.5 183.6 -28.4 169.9 Q-31.2 158.0 -28.4 146.1 Q-13.2 132.8 6.4 127.9 Q31.7 125.8 55.1 135.4 Q68.6 144.1 76.6 158.0 Z" fill="none" stroke="#883736" stroke-width="2.6"/>
<path d="M194.1 160.0 Q181.7 173.9 164.4 180.7 Q145.0 191.9 122.6 193.1 Q105.4 186.0 93.3 171.8 Q88.7 160.0 89.9 147.3 Q104.0 133.5 122.8 127.6 Q145.8 127.6 166.3 138.0 Q182.8 145.7 194.1 160.0 Z" fill="none" stroke="#883736" stroke-width="2.6"/>
<path d="M302.9 154.6 Q296.6 168.8 284.5 178.5 Q266.8 189.2 246.2 190.7 Q228.7 183.3 216.5 168.8 Q215.9 154.9 221.8 142.3 Q231.6 128.2 246.7 120.1 Q266.1 122.0 282.5 132.5 Q295.4 141.1 302.9 154.6 Z" fill="none" stroke="#883736" stroke-width="2.6"/>
<path d="M442.9 159.9 Q436.5 174.1 424.4 183.8 Q401.6 191.3 377.8 187.6 Q354.5 186.2 334.4 174.4 Q338.4 160.1 348.4 149.2 Q359.3 134.8 375.6 127.0 Q401.4 125.3 425.2 135.6 Q437.0 145.6 442.9 159.9 Z" fill="none" stroke="#883736" stroke-width="2.6"/>
<path d="M552.3 151.9 Q544.0 164.9 530.6 172.8 Q508.9 183.4 484.7 183.0 Q464.8 177.8 449.4 164.1 Q445.7 151.8 448.0 139.3 Q465.0 126.8 485.9 123.3 Q509.4 121.5 531.2 130.5 Q544.3 138.6 552.3 151.9 Z" fill="none" stroke="#883736" stroke-width="2.6"/>
<path d="M657.2 164.3 Q654.4 179.9 644.9 192.5 Q625.5 199.7 605.0 197.3 Q586.3 192.7 571.7 180.0 Q569.4 164.5 574.4 149.5 Q585.6 133.4 602.9 124.2 Q625.8 124.3 646.1 134.9 Q655.2 148.3 657.2 164.3 Z" fill="none" stroke="#883736" stroke-width="2.6"/>
<path d="M135.2 235.3 Q128.8 248.4 117.0 257.2 Q94.5 265.4 70.6 262.5 Q50.0 259.5 33.0 247.5 Q28.4 235.3 29.7 222.3 Q47.3 208.7 69.1 204.6 Q94.6 202.8 118.2 212.7 Q129.4 222.0 135.2 235.3 Z" fill="none" stroke="#883736" stroke-width="2.6"/>
<path d="M261.8 227.8 Q251.5 241.4 236.3 248.8 Q215.7 256.8 193.7 254.5 Q176.1 250.5 162.1 238.9 Q161.3 227.9 165.6 217.7 Q178.3 206.8 194.5 202.9 Q214.5 201.4 233.0 209.1 Q249.7 215.0 261.8 227.8 Z" fill="none" stroke="#883736" stroke-width="2.6"/>
<path d="M353.5 229.5 Q345.8 242.2 333.2 250.0 Q317.6 257.2 300.4 256.5 Q284.1 252.8 271.1 242.1 Q270.9 229.7 276.3 218.5 Q285.9 206.6 299.7 200.4 Q320.4 196.7 340.4 202.8 Q350.1 214.5 353.5 229.5 Z" fill="none" stroke="#883736" stroke-width="2.6"/>
<path d="M502.9 238.8 Q493.9 252.0 479.9 259.7 Q458.8 269.6 435.4 268.8 Q416.8 263.6 402.5 250.5 Q396.7 238.8 396.8 225.7 Q416.5 215.9 438.5 216.0 Q459.4 212.1 479.7 218.1 Q493.8 225.7 502.9 238.8 Z" fill="none" stroke="#883736" stroke-width="2.6"/>
<path d="M601.2 224.9 Q598.7 240.8 589.3 253.8 Q568.0 259.9 546.2 255.7 Q530.0 250.1 518.1 237.8 Q510.5 224.6 509.8 209.3 Q525.1 195.7 545.0 190.5 Q567.1 189.1 587.4 197.8 Q597.6 209.7 601.2 224.9 Z" fill="none" stroke="#883736" stroke-width="2.6"/>
<path d="M729.2 224.5 Q726.7 238.8 718.0 250.5 Q695.2 257.2 671.8 252.8 Q650.0 250.8 631.4 239.0 Q628.3 224.5 632.1 210.1 Q649.7 197.5 671.1 194.2 Q694.0 192.0 715.4 200.4 Q725.2 210.8 729.2 224.5 Z" fill="none" stroke="#883736" stroke-width="2.6"/>
<path d="M60.2 300.3 Q54.5 311.2 44.5 318.3 Q26.5 326.3 6.8 325.3 Q-9.2 321.3 -21.7 310.3 Q-30.2 300.2 -33.1 287.3 Q-13.6 277.9 8.1 278.3 Q28.7 273.9 49.0 279.4 Q57.1 288.5 60.2 300.3 Z" fill="none" stroke="#883736" stroke-width="2.6"/>
<path d="M206.2 307.9 Q195.2 323.2 178.5 331.8 Q156.4 338.4 133.7 334.2 Q109.9 334.0 88.8 322.9 Q89.7 308.1 97.3 295.2 Q112.0 281.5 131.4 275.9 Q153.6 276.9 173.0 287.9 Q192.0 293.9 206.2 307.9 Z" fill="none" stroke="#883736" stroke-width="2.6"/>
<path d="M323.6 303.8 Q313.0 317.5 297.5 324.9 Q279.8 334.8 259.6 335.6 Q243.2 329.1 231.6 315.8 Q225.6 303.6 225.8 289.9 Q241.8 278.8 261.1 276.2 Q281.5 273.2 301.0 279.7 Q315.2 289.1 323.6 303.8 Z" fill="none" stroke="#883736" stroke-width="2.6"/>
<path d="M447.2 300.6 Q440.0 317.8 425.7 329.8 Q402.4 338.5 377.6 335.6 Q355.1 331.3 337.1 317.2 Q334.6 300.7 339.9 285.0 Q356.4 270.7 377.5 265.4 Q400.5 265.2 421.0 275.3 Q437.2 284.8 447.2 300.6 Z" fill="none" stroke="#883736" stroke-width="2.6"/>
<path d="M551.8 305.2 Q550.1 320.9 541.4 334.2 Q519.9 342.7 496.9 340.6 Q480.1 333.1 468.6 318.7 Q465.9 305.3 469.6 292.1 Q479.4 275.7 495.6 265.6 Q518.9 266.7 539.2 278.2 Q548.7 290.2 551.8 305.2 Z" fill="none" stroke="#883736" stroke-width="2.6"/>
<path d="M677.7 310.3 Q667.4 325.1 651.4 333.5 Q634.1 342.2 614.7 342.1 Q599.2 335.6 588.3 322.7 Q586.1 310.3 589.7 298.3 Q600.9 287.1 615.9 282.1 Q635.7 278.2 655.1 283.8 Q669.6 294.3 677.7 310.3 Z" fill="none" stroke="#883736" stroke-width="2.6"/>
<path d="M128.0 376.1 Q127.1 392.9 118.8 407.4 Q97.5 413.4 75.7 409.1 Q55.5 405.5 39.2 393.0 Q38.0 376.4 44.4 361.1 Q59.0 350.2 77.0 347.2 Q95.9 343.6 114.4 349.0 Q124.4 360.9 128.0 376.1 Z" fill="none" stroke="#883736" stroke-width="2.6"/>
<path d="M254.3 378.7 Q246.9 392.3 234.1 401.1 Q212.5 410.8 188.8 409.7 Q166.5 406.2 148.2 392.8 Q146.4 378.7 151.3 365.3 Q169.3 353.8 190.5 351.8 Q212.8 348.8 234.0 356.3 Q246.9 365.0 254.3 378.7 Z" fill="none" stroke="#883736" stroke-width="2.6"/>
<path d="M363.7 374.2 Q359.2 387.8 349.0 397.9 Q326.4 403.5 303.7 398.4 Q285.8 395.8 271.0 385.3 Q269.3 374.2 272.9 363.5 Q287.0 353.4 304.1 350.7 Q326.6 345.0 349.3 350.2 Q359.4 360.5 363.7 374.2 Z" fill="none" stroke="#883736" stroke-width="2.6"/>
<path d="M504.6 386.8 Q494.4 399.1 479.7 405.5 Q460.0 411.8 439.5 408.5 Q420.4 407.3 404.0 397.6 Q402.3 386.8 405.8 376.3 Q419.0 363.7 436.5 358.5 Q458.7 358.7 478.3 368.9 Q493.6 374.7 504.6 386.8 Z" fill="none" stroke="#883736" stroke-width="2.6"/>
<path d="M614.7 374.9 Q609.3 389.0 598.1 399.1 Q574.6 407.7 549.8 404.6 Q534.3 398.0 523.5 385.0 Q518.7 374.8 519.0 363.6 Q532.6 351.3 550.4 346.5 Q572.0 345.9 591.5 355.1 Q605.5 362.2 614.7 374.9 Z" fill="none" stroke="#883736" stroke-width="2.6"/>
<path d="M726.2 373.7 Q721.6 387.0 711.5 396.8 Q691.0 402.8 670.2 398.8 Q649.7 397.6 632.1 387.2 Q630.4 373.8 635.1 361.0 Q651.7 351.5 670.9 350.6 Q691.4 345.5 711.9 350.3 Q721.9 360.3 726.2 373.7 Z" fill="none" stroke="#883736" stroke-width="2.6"/>
<path d="M78.9 460.7 Q70.7 478.3 55.4 490.3 Q32.1 496.1 8.7 490.6 Q-10.3 486.8 -25.4 474.7 Q-31.2 460.5 -29.9 445.2 Q-13.4 431.8 7.5 427.2 Q30.2 425.6 51.1 434.5 Q68.2 444.3 78.9 460.7 Z" fill="none" stroke="#883736" stroke-width="2.6"/>
<path d="M187.5 454.7 Q182.3 466.4 172.3 474.5 Q154.6 481.9 135.4 480.4 Q119.0 476.6 106.1 465.8 Q105.8 454.8 110.5 444.9 Q120.7 433.5 135.0 428.0 Q156.5 424.6 177.2 431.4 Q185.2 441.8 187.5 454.7 Z" fill="none" stroke="#883736" stroke-width="2.6"/>
<path d="M297.8 454.5 Q293.0 470.6 281.5 482.7 Q261.7 491.8 240.0 491.0 Q220.6 484.9 206.0 470.7 Q206.4 455.0 213.9 441.2 Q224.2 426.5 240.1 418.2 Q260.9 418.6 279.2 428.4 Q291.7 439.3 297.8 454.5 Z" fill="none" stroke="#883736" stroke-width="2.6"/>
<path d="M431.8 448.8 Q424.3 465.5 410.1 477.0 Q386.1 483.1 361.9 477.6 Q338.2 476.5 317.7 464.8 Q319.5 449.1 328.2 435.9 Q341.6 421.7 360.0 415.2 Q383.8 414.3 405.3 424.3 Q421.5 433.4 431.8 448.8 Z" fill="none" stroke="#883736" stroke-width="2.6"/>
<path d="M539.7 452.0 Q535.0 468.7 523.3 481.5 Q501.4 487.1 479.3 482.2 Q459.3 479.2 442.9 467.4 Q436.0 451.7 436.9 434.5 Q454.7 420.1 477.2 415.2 Q500.2 414.5 521.1 424.3 Q533.7 435.9 539.7 452.0 Z" fill="none" stroke="#883736" stroke-width="2.6"/>
<path d="M671.8 459.8 Q670.5 476.4 661.9 490.6 Q638.8 501.0 613.6 499.8 Q595.8 490.5 584.1 474.2 Q578.5 459.6 580.1 444.2 Q593.7 427.7 613.4 419.2 Q636.4 421.8 655.6 434.5 Q666.8 445.2 671.8 459.8 Z" fill="none" stroke="#883736" stroke-width="2.6"/>
<path d="M130.1 525.4 Q123.0 542.3 109.0 554.2 Q89.7 562.9 68.5 562.0 Q50.9 554.9 38.6 540.6 Q35.6 525.5 39.9 510.8 Q51.9 497.1 68.9 490.3 Q88.4 490.8 105.5 500.1 Q120.8 509.8 130.1 525.4 Z" fill="none" stroke="#883736" stroke-width="2.6"/>
<path d="M272.0 530.3 Q257.6 546.2 237.6 553.8 Q215.2 562.3 191.4 559.7 Q170.8 556.0 154.2 543.4 Q150.2 530.3 152.6 516.8 Q170.0 504.1 191.3 500.7 Q215.7 497.7 238.7 506.1 Q258.3 514.2 272.0 530.3 Z" fill="none" stroke="#883736" stroke-width="2.6"/>
<path d="M370.4 531.5 Q361.2 543.6 347.5 550.2 Q325.4 561.7 300.5 562.0 Q280.5 556.6 265.1 542.8 Q263.6 531.4 267.5 520.7 Q281.7 507.0 300.7 501.3 Q325.1 501.7 346.8 513.2 Q360.8 519.5 370.4 531.5 Z" fill="none" stroke="#883736" stroke-width="2.6"/>
<path d="M498.6 527.3 Q490.8 541.5 477.3 550.5 Q460.0 556.2 442.1 553.3 Q423.3 551.8 407.2 541.8 Q408.0 527.7 415.2 515.5 Q426.2 504.1 441.3 498.9 Q459.9 497.2 477.3 504.1 Q490.8 513.2 498.6 527.3 Z" fill="none" stroke="#883736" stroke-width="2.6"/>
<path d="M618.2 528.4 Q609.0 543.6 594.0 553.0 Q576.2 560.6 557.0 559.3 Q539.9 554.4 526.8 542.3 Q522.6 528.3 525.1 514.0 Q538.3 500.8 556.2 495.0 Q577.9 492.3 598.5 499.8 Q611.8 511.7 618.2 528.4 Z" fill="none" stroke="#883736" stroke-width="2.6"/>
<path d="M715.7 531.1 Q709.1 544.4 697.2 553.2 Q679.6 561.4 660.2 560.6 Q639.2 558.3 621.5 546.7 Q622.3 531.4 629.9 518.2 Q641.6 504.0 658.6 496.7 Q680.4 496.8 699.7 506.9 Q710.6 517.1 715.7 531.1 Z" fill="none" stroke="#883736" stroke-width="2.6"/>
<path d="M66.2 599.6 Q58.3 613.7 44.8 622.8 Q28.5 634.6 8.6 637.7 Q-11.7 631.4 -26.9 616.6 Q-31.8 599.5 -28.5 582.0 Q-11.7 568.5 9.4 564.1 Q29.0 565.4 45.9 575.4 Q58.9 585.1 66.2 599.6 Z" fill="none" stroke="#883736" stroke-width="2.6"/>
<path d="M197.8 599.6 Q189.6 616.9 174.5 628.5 Q151.2 638.2 126.0 636.4 Q104.4 630.6 87.7 615.6 Q84.1 599.7 88.0 583.8 Q104.9 569.4 126.4 564.1 Q149.6 564.0 170.2 574.3 Q187.1 583.6 197.8 599.6 Z" fill="none" stroke="#883736" stroke-width="2.6"/>
<path d="M292.5 602.2 Q290.8 618.5 281.9 632.2 Q261.4 637.7 240.7 633.4 Q222.3 629.5 207.6 617.6 Q203.7 602.2 207.3 586.7 Q221.1 573.1 239.5 567.3 Q260.0 566.6 278.6 575.4 Q288.8 587.1 292.5 602.2 Z" fill="none" stroke="#883736" stroke-width="2.6"/>
<path d="M419.8 607.8 Q416.5 623.4 406.4 635.7 Q382.2 643.3 357.2 639.0 Q340.4 632.7 328.2 619.5 Q325.7 607.8 328.7 596.2 Q341.5 584.4 358.4 579.7 Q379.1 578.0 398.4 585.9 Q411.7 594.3 419.8 607.8 Z" fill="none" stroke="#883736" stroke-width="2.6"/>
<path d="M550.8 599.6 Q543.5 612.2 531.4 620.1 Q511.1 628.5 489.3 626.8 Q470.7 623.1 455.8 611.2 Q453.3 599.6 456.4 588.1 Q471.2 576.6 489.6 573.1 Q510.7 571.6 530.2 579.9 Q542.8 587.2 550.8 599.6 Z" fill="none" stroke="#883736" stroke-width="2.6"/>
<path d="M674.8 604.3 Q662.1 617.5 644.7 623.5 Q625.6 633.8 604.0 634.4 Q583.8 630.1 567.8 617.1 Q562.5 604.2 563.6 590.4 Q582.9 578.9 605.3 577.4 Q627.9 574.3 649.4 581.8 Q664.8 590.0 674.8 604.3 Z" fill="none" stroke="#883736" stroke-width="2.6"/>
<path d="M-40 104.0 L0.0 283.2 L40.0 104.0 L80.0 170.0 L120.0 104.0 L160.0 289.6 L200.0 104.0 L240.0 179.7 L280.0 104.0 L320.0 213.7 L360.0 104.0 L400.0 278.7 L440.0 104.0 L480.0 197.4 L520.0 104.0 L560.0 220.2 L600.0 104.0 L640.0 168.2 L680.0 104.0 L680 104.0 L680 -40 L-40 -40 Z" fill="#503433"/>
<path d="M-40 62.0 L11.4 136.5 L62.9 62.0 L114.3 121.4 L165.7 62.0 L217.1 182.9 L268.6 62.0 L320.0 140.4 L371.4 62.0 L422.9 100.7 L474.3 62.0 L525.7 167.0 L577.1 62.0 L628.6 99.5 L680.0 62.0 L680 62.0 L680 -40 L-40 -40 Z" fill="#3d2525"/>
<path d="M525.2 420.0 Q528.7 463.5 512.1 503.9 Q491.6 542.6 455.7 567.8 Q428.7 604.6 387.9 625.0 Q341.7 625.7 300.1 605.4 Q254.9 617.9 209.0 608.6 Q170.5 582.9 147.9 542.6 Q118.9 508.0 108.7 464.0 Q98.1 420.0 108.7 376.0 Q126.7 335.1 161.3 306.9 Q178.0 265.5 211.7 236.1 Q252.2 214.8 297.9 214.2 Q341.9 216.6 380.1 238.7 Q425.6 239.7 465.8 261.2 Q495.4 295.0 506.4 338.6 Q525.6 377.1 525.2 420.0 Z" fill="#883736"/>
<path d="M489.9 428.0 Q488.6 465.7 470.4 498.7 Q459.4 536.8 432.4 565.7 Q398.2 587.0 358.0 590.5 Q320.0 600.6 281.6 592.4 Q242.9 584.7 212.0 560.3 Q182.9 535.0 168.5 499.2 Q148.0 466.5 144.6 428.0 Q141.3 388.1 156.4 351.0 Q182.2 320.2 219.2 304.5 Q245.3 276.2 281.4 262.8 Q320.0 257.1 357.0 269.6 Q396.2 273.0 429.6 293.8 Q460.8 318.1 477.6 353.8 Q492.7 389.4 489.9 428.0 Z" fill="#503433"/>
<path d="M452.8 436.0 Q455.4 468.5 443.0 498.7 Q425.5 527.1 397.1 544.5 Q370.0 564.6 336.8 570.1 Q303.0 572.6 271.8 559.4 Q237.7 552.1 210.7 530.1 Q189.5 502.7 183.1 468.8 Q173.6 436.0 180.1 402.5 Q187.6 368.3 209.8 341.2 Q236.2 317.8 270.4 308.9 Q302.7 297.2 336.8 301.5 Q369.7 308.2 396.0 329.1 Q427.1 343.6 448.2 370.6 Q458.3 402.8 452.8 436.0 Z" fill="#3d2525"/>
<defs><radialGradient id="glow"><stop offset="0" stop-color="#fffdf2"/><stop offset="0.24" stop-color="#ffe9a8" stop-opacity="0.85"/><stop offset="1" stop-color="#f6c860" stop-opacity="0"/></radialGradient></defs>
<path d="M330.0 451.1 L472.0 452.0 L330.0 452.9 Z" fill="#f6c860" opacity="0.33"/>
<path d="M329.1 456.2 L451.6 528.0 L328.2 457.8 Z" fill="#f6c860" opacity="0.33"/>
<path d="M325.8 460.2 L396.0 583.6 L324.2 461.1 Z" fill="#f6c860" opacity="0.33"/>
<path d="M320.9 462.0 L320.0 604.0 L319.1 462.0 Z" fill="#f6c860" opacity="0.33"/>
<path d="M315.8 461.1 L244.0 583.6 L314.2 460.2 Z" fill="#f6c860" opacity="0.33"/>
<path d="M311.8 457.8 L188.4 528.0 L310.9 456.2 Z" fill="#f6c860" opacity="0.33"/>
<path d="M310.0 452.9 L168.0 452.0 L310.0 451.1 Z" fill="#f6c860" opacity="0.33"/>
<path d="M310.9 447.8 L188.4 376.0 L311.8 446.2 Z" fill="#f6c860" opacity="0.33"/>
<path d="M314.2 443.8 L244.0 320.4 L315.8 442.9 Z" fill="#f6c860" opacity="0.33"/>
<path d="M319.1 442.0 L320.0 300.0 L320.9 442.0 Z" fill="#f6c860" opacity="0.33"/>
<path d="M324.2 442.9 L396.0 320.4 L325.8 443.8 Z" fill="#f6c860" opacity="0.33"/>
<path d="M328.2 446.2 L451.6 376.0 L329.1 447.8 Z" fill="#f6c860" opacity="0.33"/>
<ellipse cx="320.0" cy="452.0" rx="76.0" ry="76.0" fill="url(#glow)"/>
<ellipse cx="320.0" cy="452.0" rx="15.0" ry="15.0" fill="#fffdf2"/>
<path d="M-40.0 646.2 Q11.4 663.2 62.9 663.2 Q114.3 636.1 165.7 636.1 Q217.1 621.8 268.6 621.8 Q320.0 637.6 371.4 637.6 Q422.9 654.8 474.3 654.8 Q525.7 643.5 577.1 643.5 Q628.6 625.9 680.0 625.9 L680 893 L-40 893 Z" fill="#b94747"/>
<path d="M-40.0 711.3 Q5.0 701.9 50.0 701.9 Q95.0 686.5 140.0 686.5 Q185.0 679.6 230.0 679.6 Q275.0 695.0 320.0 695.0 Q365.0 713.5 410.0 713.5 Q455.0 696.4 500.0 696.4 Q545.0 681.8 590.0 681.8 Q635.0 679.0 680.0 679.0 L680 893 L-40 893 Z" fill="#c1434e"/>
<path d="M-40.0 724.6 Q11.4 731.1 62.9 731.1 Q114.3 720.3 165.7 720.3 Q217.1 713.9 268.6 713.9 Q320.0 726.8 371.4 726.8 Q422.9 733.3 474.3 733.3 Q525.7 723.5 577.1 723.5 Q628.6 715.0 680.0 715.0" fill="none" stroke="#a13c3c" stroke-width="8" stroke-linecap="round"/>
<path d="M-40.0 766.0 Q11.4 773.1 62.9 773.1 Q114.3 764.0 165.7 764.0 Q217.1 754.0 268.6 754.0 Q320.0 764.7 371.4 764.7 Q422.9 772.7 474.3 772.7 Q525.7 764.5 577.1 764.5 Q628.6 756.0 680.0 756.0" fill="none" stroke="#a13c3c" stroke-width="8" stroke-linecap="round"/>
<path d="M-40.0 807.0 Q11.4 809.7 62.9 809.7 Q114.3 798.6 165.7 798.6 Q217.1 796.0 268.6 796.0 Q320.0 803.6 371.4 803.6 Q422.9 810.6 474.3 810.6 Q525.7 802.1 577.1 802.1 Q628.6 793.4 680.0 793.4" fill="none" stroke="#a13c3c" stroke-width="8" stroke-linecap="round"/>
</svg>
